<svg width="760" height="235" viewBox="0 0 760 235" fill="none" xmlns="http://www.w3.org/2000/svg">
<mask id="mask0_240_5287" style="mask-type:alpha" maskUnits="userSpaceOnUse" x="1" y="9" width="759" height="198">
<path d="M325.68 205V204.52C326.8 204.36 327.64 204.2 328.2 204.04C329.4 203.56 330.24 203.04 330.72 202.48C331.28 201.92 331.72 201 332.04 199.72C332.44 198.36 332.64 194.88 332.64 189.28V168.76C332.64 163.24 332.4 159.6 331.92 157.84C331.36 156 330.12 154.72 328.2 154C327.48 153.68 326.64 153.52 325.68 153.52V153.04H386.28V153.52C385.32 153.52 384.52 153.68 383.88 154C381.8 154.72 380.48 155.96 379.92 157.72C379.52 159.16 379.32 162.84 379.32 168.76V189.28C379.32 194.96 379.48 198.44 379.8 199.72C380.12 201.08 380.56 202.04 381.12 202.6C381.76 203.16 382.72 203.68 384 204.16C384.16 204.24 384.92 204.36 386.28 204.52V205H357.96V204.52C359.24 204.28 360 204.12 360.24 204.04C362.4 203.32 363.72 201.68 364.2 199.12C364.44 197.6 364.56 194.76 364.56 190.6V164.44C364.56 161.48 364.4 159.52 364.08 158.56C363.28 156 360.76 154.72 356.52 154.72H354.96C350.88 154.8 348.48 156.08 347.76 158.56C347.44 159.52 347.28 161.48 347.28 164.44V190.6C347.28 194.76 347.44 197.6 347.76 199.12C348.08 200.64 348.52 201.76 349.08 202.48C349.72 203.2 350.68 203.76 351.96 204.16C352.2 204.24 352.56 204.32 353.04 204.4C353.52 204.48 353.8 204.52 353.88 204.52V205H325.68ZM421.827 205V204.52C422.947 204.36 423.787 204.16 424.347 203.92C426.267 203.12 427.467 201.68 427.947 199.6C428.267 198.24 428.427 195.24 428.427 190.6V167.44V165.76L409.947 196.84C410.107 198.12 410.267 199.04 410.427 199.6C410.907 201.76 412.147 203.24 414.147 204.04C414.627 204.2 415.427 204.36 416.547 204.52V205H388.347V204.52C389.467 204.36 390.307 204.2 390.867 204.04C392.787 203.32 394.027 202.04 394.587 200.2C395.067 198.44 395.307 194.8 395.307 189.28V168.76C395.307 163.16 395.067 159.48 394.587 157.72C394.107 155.96 392.827 154.72 390.747 154C390.027 153.68 389.227 153.52 388.347 153.52V153.04H416.547V153.52C415.667 153.52 414.867 153.68 414.147 154C412.147 154.8 410.907 156.28 410.427 158.44C410.107 159.72 409.947 162.72 409.947 167.44V190.6V193.36L428.307 162.16C428.307 160.64 428.187 159.4 427.947 158.44C427.547 156.44 426.347 154.96 424.347 154C423.227 153.68 422.387 153.52 421.827 153.52V153.04H450.147V153.52C449.187 153.52 448.347 153.68 447.627 154C445.707 154.64 444.467 155.88 443.907 157.72C443.427 159.16 443.187 162.84 443.187 168.76V189.28C443.187 195.12 443.427 198.76 443.907 200.2C444.467 202.2 445.747 203.48 447.747 204.04C448.067 204.2 448.867 204.36 450.147 204.52V205H421.827ZM499.706 153.04L500.546 173.8H499.946C497.946 169.96 495.506 165.76 492.626 161.2C489.986 157.2 486.826 155.12 483.146 154.96V189.28C483.146 194.32 483.346 197.72 483.746 199.48C484.146 200.92 484.586 201.92 485.066 202.48C485.546 202.96 486.346 203.44 487.466 203.92C488.026 204.16 488.946 204.36 490.226 204.52V205H461.546V204.52C462.826 204.36 463.746 204.16 464.306 203.92C465.426 203.44 466.226 202.96 466.706 202.48C467.186 201.92 467.626 200.92 468.026 199.48C468.346 198.36 468.506 194.96 468.506 189.28V154.96C464.746 155.2 461.626 157.28 459.146 161.2C456.266 165.6 453.826 169.8 451.826 173.8H451.106L451.946 153.04H499.706ZM551.651 202.84C551.091 203.56 549.651 204.28 547.331 205C545.091 205.72 542.611 206.08 539.891 206.08C535.971 206.08 533.251 205.36 531.731 203.92C530.371 202.96 529.691 200.92 529.691 197.8H529.451C527.771 203.32 523.171 206.08 515.651 206.08C511.891 206.08 508.691 204.96 506.051 202.72C503.491 200.4 502.211 197.04 502.211 192.64C502.211 189.52 503.211 186.8 505.211 184.48C506.171 183.44 507.411 182.6 508.931 181.96C510.451 181.24 512.251 180.6 514.331 180.04C516.411 179.48 517.771 179.08 518.411 178.84C525.851 176.52 529.571 173 529.571 168.28C529.571 167.56 529.571 166.24 529.571 164.32C529.651 162.4 529.691 161.16 529.691 160.6C529.691 157.72 529.251 155.8 528.371 154.84C527.491 153.88 525.851 153.4 523.451 153.4C521.211 153.4 519.731 154 519.011 155.2C518.451 156.16 518.171 158.64 518.171 162.64C518.171 166.96 515.971 169.12 511.571 169.12C507.411 169.12 505.331 167.2 505.331 163.36C505.331 161.36 505.971 159.6 507.251 158.08C508.611 156.32 510.891 154.88 514.091 153.76C517.371 152.56 520.691 151.96 524.051 151.96C537.491 151.96 544.211 156.64 544.211 166C544.211 167.04 544.171 171.12 544.091 178.24C544.091 185.36 544.091 190.32 544.091 193.12C544.091 198.16 544.491 201.16 545.291 202.12C546.011 202.84 546.971 203.2 548.171 203.2C549.371 203.2 550.531 202.92 551.651 202.36V202.84ZM529.331 173.56C528.451 174.92 526.651 176.44 523.931 178.12C521.531 179.48 519.891 181.12 519.011 183.04C517.971 185.04 517.451 188.2 517.451 192.52C517.451 198.92 519.411 202.12 523.331 202.12C524.771 202.12 526.091 201.16 527.291 199.24C528.571 197.32 529.211 194.92 529.211 192.04L529.331 173.56ZM584.374 205V204.52C585.494 204.36 586.294 204.2 586.774 204.04C588.774 203.24 590.014 201.76 590.494 199.6C590.814 198.24 590.974 195.24 590.974 190.6V179.44H573.574V190.6C573.574 195.24 573.734 198.24 574.054 199.6C574.614 201.84 575.894 203.32 577.894 204.04C578.294 204.2 579.054 204.36 580.174 204.52V205H551.974V204.52C553.254 204.28 554.014 204.12 554.254 204.04C556.414 203.32 557.734 202.04 558.214 200.2C558.694 198.44 558.934 194.8 558.934 189.28V168.76C558.934 163.16 558.694 159.48 558.214 157.72C557.734 155.96 556.454 154.72 554.374 154C553.654 153.68 552.854 153.52 551.974 153.52V153.04H580.174V153.52C579.294 153.52 578.494 153.68 577.774 154C575.854 154.72 574.614 156.2 574.054 158.44C573.734 159.72 573.574 162.72 573.574 167.44V177.4H590.974V167.44C590.974 162.72 590.814 159.72 590.494 158.44C590.014 156.36 588.814 154.88 586.894 154C585.774 153.68 584.934 153.52 584.374 153.52V153.04H612.574V153.52C611.614 153.52 610.774 153.68 610.054 154C608.054 154.72 606.854 155.96 606.454 157.72C605.894 159.4 605.614 163.08 605.614 168.76V189.28C605.614 194.88 605.894 198.52 606.454 200.2C606.934 202.04 608.214 203.32 610.294 204.04C610.534 204.12 611.294 204.28 612.574 204.52V205H584.374ZM648.238 205V204.52C649.358 204.36 650.198 204.16 650.758 203.92C652.678 203.12 653.878 201.68 654.358 199.6C654.678 198.24 654.838 195.24 654.838 190.6V167.44V165.76L636.358 196.84C636.518 198.12 636.678 199.04 636.838 199.6C637.318 201.76 638.558 203.24 640.558 204.04C641.038 204.2 641.838 204.36 642.958 204.52V205H614.758V204.52C615.878 204.36 616.718 204.2 617.278 204.04C619.198 203.32 620.438 202.04 620.998 200.2C621.478 198.44 621.718 194.8 621.718 189.28V168.76C621.718 163.16 621.478 159.48 620.998 157.72C620.518 155.96 619.238 154.72 617.158 154C616.438 153.68 615.638 153.52 614.758 153.52V153.04H642.958V153.52C642.078 153.52 641.278 153.68 640.558 154C638.558 154.8 637.318 156.28 636.838 158.44C636.518 159.72 636.358 162.72 636.358 167.44V190.6V193.36L654.718 162.16C654.718 160.64 654.598 159.4 654.358 158.44C653.958 156.44 652.758 154.96 650.758 154C649.638 153.68 648.798 153.52 648.238 153.52V153.04H676.558V153.52C675.598 153.52 674.758 153.68 674.038 154C672.118 154.64 670.878 155.88 670.318 157.72C669.838 159.16 669.598 162.84 669.598 168.76V189.28C669.598 195.12 669.838 198.76 670.318 200.2C670.878 202.2 672.158 203.48 674.158 204.04C674.478 204.2 675.278 204.36 676.558 204.52V205H648.238ZM726.477 176.32H695.277C695.277 187.76 697.117 195.6 700.797 199.84C702.717 201.92 705.357 202.96 708.717 202.96C716.557 202.96 721.877 197.96 724.677 187.96L725.997 188.32C724.877 193.6 722.477 197.88 718.797 201.16C715.197 204.44 710.597 206.08 704.997 206.08C697.957 206.08 692.317 204.24 688.077 200.56C682.317 195.52 679.437 188.4 679.437 179.2C679.437 170.72 681.837 164.08 686.637 159.28C691.517 154.4 697.357 151.96 704.157 151.96C711.357 151.96 716.877 154.04 720.717 158.2C724.637 162.28 726.597 167.24 726.597 173.08C726.597 174.6 726.557 175.68 726.477 176.32ZM712.557 169.96C712.557 162.84 711.517 158 709.437 155.44C708.157 154.08 706.477 153.4 704.397 153.4C702.397 153.4 700.677 154.12 699.237 155.56C696.917 158.12 695.597 164.48 695.277 174.64H708.717C710.157 174.64 711.157 174.32 711.717 173.68C712.277 173.04 712.557 171.8 712.557 169.96Z" fill="#1D1D1D"/>
<path d="M63.48 91.32C58.44 91.32 54.52 89.6 51.72 86.16C48.92 82.64 46.32 77.44 43.92 70.56C40.8 61.92 38.56 56.48 37.2 54.24C35.84 51.92 33.72 50.76 30.84 50.76H28.68V66.96C28.68 74.88 29.12 80.24 30 83.04C30.88 86 32.68 87.88 35.4 88.68C36.2 89 37.24 89.24 38.52 89.4V90H1.68V89.4C3.04 89.24 4.24 89 5.28 88.68C8.16 87.88 10.04 86 10.92 83.04C11.72 80.16 12.12 74.8 12.12 66.96V34.2C12.12 26.28 11.72 20.88 10.92 18C10.04 15.2 8.16 13.36 5.28 12.48C4.08 12 2.88 11.76 1.68 11.76V11.16H38.52V11.76C37.24 11.92 36.2 12.16 35.4 12.48C32.68 13.44 30.88 15.28 30 18C29.12 20.8 28.68 26.2 28.68 34.2V48.48H31.44C35.12 48.48 37.88 47.36 39.72 45.12C41.64 42.8 43.52 38.68 45.36 32.76C47.84 24.44 50.32 18.52 52.8 15C55.36 11.48 58.84 9.72 63.24 9.72C66.2 9.72 68.48 10.6 70.08 12.36C71.76 14.12 72.6 16.28 72.6 18.84C72.6 21.4 71.84 23.52 70.32 25.2C68.8 26.88 66.8 27.72 64.32 27.72C62 27.72 59.92 26.8 58.08 24.96C57.92 24.8 57.6 24.48 57.12 24C56.72 23.44 56.4 23.08 56.16 22.92C56 22.76 55.76 22.6 55.44 22.44C55.12 22.2 54.76 22.08 54.36 22.08C53.08 22.08 51.92 23.04 50.88 24.96C49.92 26.8 48.76 29.8 47.4 33.96C45.08 42.52 41.8 47.6 37.56 49.2V49.44C43.48 49.6 48.08 51.24 51.36 54.36C54.64 57.48 57.88 62.8 61.08 70.32C64.68 78.88 68.36 83.16 72.12 83.16C74.28 83.16 76.12 82.28 77.64 80.52L78.24 81.12C74.88 87.92 69.96 91.32 63.48 91.32ZM122.126 44.4C127.486 49.36 130.166 55.88 130.166 63.96C130.166 72.04 127.526 78.6 122.246 83.64C116.966 88.6 110.846 91.08 103.886 91.08C97.0063 91.08 90.9263 88.6 85.6463 83.64C80.3663 78.68 77.7263 72.12 77.7263 63.96C77.7263 55.88 80.3663 49.36 85.6463 44.4C90.9263 39.44 97.0063 36.96 103.886 36.96C110.766 36.96 116.846 39.44 122.126 44.4ZM110.246 87.24C113.126 83.64 114.566 75.88 114.566 63.96C114.566 52.04 113.126 44.32 110.246 40.8C108.806 39.04 106.686 38.16 103.886 38.16C101.406 38.16 99.3663 39 97.7663 40.68C94.8063 43.96 93.3263 51.72 93.3263 63.96C93.3263 76.04 94.7663 83.8 97.6463 87.24C99.1663 89.08 101.246 90 103.886 90C106.606 90 108.726 89.08 110.246 87.24ZM190.948 64.08C190.948 72.32 188.788 78.88 184.468 83.76C180.148 88.64 174.628 91.08 167.908 91.08C162.548 91.08 158.308 89.68 155.188 86.88H154.828V99.96C154.828 105 154.988 108.2 155.308 109.56C155.628 111.08 156.068 112.12 156.628 112.68C157.188 113.32 158.148 113.92 159.508 114.48C159.828 114.64 160.668 114.8 162.028 114.96V115.56H132.988V114.96C134.348 114.8 135.188 114.64 135.508 114.48C136.868 113.92 137.828 113.32 138.388 112.68C138.948 112.12 139.388 111.08 139.708 109.56C140.028 108.2 140.188 105 140.188 99.96V52.68C140.188 48.44 140.108 45.68 139.948 44.4C139.788 42.8 139.068 41.44 137.788 40.32C136.668 39.36 134.868 38.76 132.388 38.52V38.04H153.748C154.388 38.04 154.708 38.4 154.708 39.12L154.588 46.8H155.188C156.308 43.84 158.188 41.48 160.828 39.72C163.548 37.88 166.348 36.96 169.228 36.96C175.548 36.96 180.748 39.28 184.828 43.92C188.908 48.56 190.948 55.28 190.948 64.08ZM175.228 63.6C175.228 54.48 174.468 48.24 172.948 44.88C171.508 41.52 169.148 39.84 165.868 39.84C162.748 39.84 160.108 41.52 157.948 44.88C155.868 48.16 154.828 52.24 154.828 57.12V71.64C154.828 77.96 155.988 82.48 158.308 85.2C160.548 87.84 163.108 89.16 165.988 89.16C169.188 89.16 171.508 87.24 172.948 83.4C174.468 79.48 175.228 72.88 175.228 63.6ZM193.9 90V89.52C195.02 89.36 195.86 89.2 196.42 89.04C197.62 88.56 198.46 88.04 198.94 87.48C199.5 86.92 199.94 86 200.26 84.72C200.66 83.36 200.86 79.88 200.86 74.28V53.76C200.86 48.24 200.62 44.6 200.14 42.84C199.58 41 198.34 39.72 196.42 39C195.7 38.68 194.86 38.52 193.9 38.52V38.04H254.5V38.52C253.54 38.52 252.74 38.68 252.1 39C250.02 39.72 248.7 40.96 248.14 42.72C247.74 44.16 247.54 47.84 247.54 53.76V74.28C247.54 79.96 247.7 83.44 248.02 84.72C248.34 86.08 248.78 87.04 249.34 87.6C249.98 88.16 250.94 88.68 252.22 89.16C252.38 89.24 253.14 89.36 254.5 89.52V90H226.18V89.52C227.46 89.28 228.22 89.12 228.46 89.04C230.62 88.32 231.94 86.68 232.42 84.12C232.66 82.6 232.78 79.76 232.78 75.6V49.44C232.78 46.48 232.62 44.52 232.3 43.56C231.5 41 228.98 39.72 224.74 39.72H223.18C219.1 39.8 216.7 41.08 215.98 43.56C215.66 44.52 215.5 46.48 215.5 49.44V75.6C215.5 79.76 215.66 82.6 215.98 84.12C216.3 85.64 216.74 86.76 217.3 87.48C217.94 88.2 218.9 88.76 220.18 89.16C220.42 89.24 220.78 89.32 221.26 89.4C221.74 89.48 222.02 89.52 222.1 89.52V90H193.9ZM301.808 44.4C307.168 49.36 309.848 55.88 309.848 63.96C309.848 72.04 307.208 78.6 301.927 83.64C296.647 88.6 290.527 91.08 283.567 91.08C276.687 91.08 270.607 88.6 265.327 83.64C260.047 78.68 257.407 72.12 257.407 63.96C257.407 55.88 260.047 49.36 265.327 44.4C270.607 39.44 276.687 36.96 283.567 36.96C290.447 36.96 296.527 39.44 301.808 44.4ZM289.928 87.24C292.807 83.64 294.247 75.88 294.247 63.96C294.247 52.04 292.807 44.32 289.928 40.8C288.487 39.04 286.367 38.16 283.567 38.16C281.087 38.16 279.047 39 277.447 40.68C274.487 43.96 273.007 51.72 273.007 63.96C273.007 76.04 274.447 83.8 277.327 87.24C278.847 89.08 280.927 90 283.567 90C286.287 90 288.407 89.08 289.928 87.24ZM370.629 64.08C370.629 72.32 368.469 78.88 364.149 83.76C359.829 88.64 354.309 91.08 347.589 91.08C342.229 91.08 337.989 89.68 334.869 86.88H334.509V99.96C334.509 105 334.669 108.2 334.989 109.56C335.309 111.08 335.749 112.12 336.309 112.68C336.869 113.32 337.829 113.92 339.189 114.48C339.509 114.64 340.349 114.8 341.709 114.96V115.56H312.669V114.96C314.029 114.8 314.869 114.64 315.189 114.48C316.549 113.92 317.509 113.32 318.069 112.68C318.629 112.12 319.069 111.08 319.389 109.56C319.709 108.2 319.869 105 319.869 99.96V52.68C319.869 48.44 319.789 45.68 319.629 44.4C319.469 42.8 318.749 41.44 317.469 40.32C316.349 39.36 314.549 38.76 312.069 38.52V38.04H333.429C334.069 38.04 334.389 38.4 334.389 39.12L334.269 46.8H334.869C335.989 43.84 337.869 41.48 340.509 39.72C343.229 37.88 346.029 36.96 348.909 36.96C355.229 36.96 360.429 39.28 364.509 43.92C368.589 48.56 370.629 55.28 370.629 64.08ZM354.909 63.6C354.909 54.48 354.149 48.24 352.629 44.88C351.189 41.52 348.829 39.84 345.549 39.84C342.429 39.84 339.789 41.52 337.629 44.88C335.549 48.16 334.509 52.24 334.509 57.12V71.64C334.509 77.96 335.669 82.48 337.989 85.2C340.229 87.84 342.789 89.16 345.669 89.16C348.869 89.16 351.189 87.24 352.629 83.4C354.149 79.48 354.909 72.88 354.909 63.6ZM423.622 87.84C423.062 88.56 421.622 89.28 419.302 90C417.062 90.72 414.582 91.08 411.862 91.08C407.942 91.08 405.222 90.36 403.702 88.92C402.342 87.96 401.662 85.92 401.662 82.8H401.422C399.742 88.32 395.142 91.08 387.622 91.08C383.862 91.08 380.662 89.96 378.022 87.72C375.462 85.4 374.182 82.04 374.182 77.64C374.182 74.52 375.182 71.8 377.182 69.48C378.142 68.44 379.382 67.6 380.902 66.96C382.422 66.24 384.222 65.6 386.302 65.04C388.382 64.48 389.742 64.08 390.382 63.84C397.822 61.52 401.542 58 401.542 53.28C401.542 52.56 401.542 51.24 401.542 49.32C401.622 47.4 401.662 46.16 401.662 45.6C401.662 42.72 401.222 40.8 400.342 39.84C399.462 38.88 397.822 38.4 395.422 38.4C393.182 38.4 391.702 39 390.982 40.2C390.422 41.16 390.142 43.64 390.142 47.64C390.142 51.96 387.942 54.12 383.542 54.12C379.382 54.12 377.302 52.2 377.302 48.36C377.302 46.36 377.942 44.6 379.222 43.08C380.582 41.32 382.862 39.88 386.062 38.76C389.342 37.56 392.662 36.96 396.022 36.96C409.462 36.96 416.182 41.64 416.182 51C416.182 52.04 416.142 56.12 416.062 63.24C416.062 70.36 416.062 75.32 416.062 78.12C416.062 83.16 416.462 86.16 417.262 87.12C417.982 87.84 418.942 88.2 420.142 88.2C421.342 88.2 422.502 87.92 423.622 87.36V87.84ZM401.302 58.56C400.422 59.92 398.622 61.44 395.902 63.12C393.502 64.48 391.862 66.12 390.982 68.04C389.942 70.04 389.422 73.2 389.422 77.52C389.422 83.92 391.382 87.12 395.302 87.12C396.742 87.12 398.062 86.16 399.262 84.24C400.542 82.32 401.182 79.92 401.182 77.04L401.302 58.56ZM471.464 38.04L472.304 58.8H471.704C469.704 54.96 467.264 50.76 464.384 46.2C461.744 42.2 458.584 40.12 454.904 39.96V74.28C454.904 79.32 455.104 82.72 455.504 84.48C455.904 85.92 456.344 86.92 456.824 87.48C457.304 87.96 458.104 88.44 459.224 88.92C459.784 89.16 460.704 89.36 461.984 89.52V90H433.304V89.52C434.584 89.36 435.504 89.16 436.064 88.92C437.184 88.44 437.984 87.96 438.464 87.48C438.944 86.92 439.384 85.92 439.784 84.48C440.104 83.36 440.264 79.96 440.264 74.28V39.96C436.504 40.2 433.384 42.28 430.904 46.2C428.024 50.6 425.584 54.8 423.584 58.8H422.864L423.704 38.04H471.464ZM506.849 90V89.52C507.969 89.36 508.809 89.16 509.369 88.92C511.289 88.12 512.489 86.68 512.969 84.6C513.289 83.24 513.449 80.24 513.449 75.6V52.44V50.76L494.969 81.84C495.129 83.12 495.289 84.04 495.449 84.6C495.929 86.76 497.169 88.24 499.169 89.04C499.649 89.2 500.449 89.36 501.569 89.52V90H473.369V89.52C474.489 89.36 475.329 89.2 475.889 89.04C477.809 88.32 479.049 87.04 479.609 85.2C480.089 83.44 480.329 79.8 480.329 74.28V53.76C480.329 48.16 480.089 44.48 479.609 42.72C479.129 40.96 477.849 39.72 475.769 39C475.049 38.68 474.249 38.52 473.369 38.52V38.04H501.569V38.52C500.689 38.52 499.889 38.68 499.169 39C497.169 39.8 495.929 41.28 495.449 43.44C495.129 44.72 494.969 47.72 494.969 52.44V75.6V78.36L513.329 47.16C513.329 45.64 513.209 44.4 512.969 43.44C512.569 41.44 511.369 39.96 509.369 39C508.249 38.68 507.409 38.52 506.849 38.52V38.04H535.169V38.52C534.209 38.52 533.369 38.68 532.649 39C530.729 39.64 529.489 40.88 528.929 42.72C528.449 44.16 528.209 47.84 528.209 53.76V74.28C528.209 80.12 528.449 83.76 528.929 85.2C529.489 87.2 530.769 88.48 532.769 89.04C533.089 89.2 533.889 89.36 535.169 89.52V90H506.849ZM537.208 38.52V38.04H566.128C579.648 38.04 586.408 42.08 586.408 50.16C586.408 57.04 581.568 60.92 571.888 61.8V61.92C577.008 62.32 581.088 63.72 584.128 66.12C587.168 68.44 588.688 71.52 588.688 75.36C588.688 85.12 581.688 90 567.688 90H537.208V89.52C538.328 89.36 539.168 89.2 539.728 89.04C541.648 88.4 542.888 87.08 543.448 85.08C543.928 83.32 544.168 79.72 544.168 74.28V53.76C544.168 47.6 543.848 43.76 543.208 42.24C542.488 40.56 541.248 39.44 539.488 38.88C538.688 38.64 537.928 38.52 537.208 38.52ZM565.288 88.44C570.648 88.44 573.328 84.08 573.328 75.36C573.328 67.04 570.088 62.88 563.608 62.88H558.808V77.52C558.808 80.8 559.008 83.16 559.408 84.6C560.128 87.16 562.088 88.44 565.288 88.44ZM558.808 61.08H563.608C568.968 61.08 571.648 57.48 571.648 50.28C571.648 43.24 569.288 39.72 564.568 39.72C562.248 39.72 560.688 40.52 559.888 42.12C559.168 43.72 558.808 46.24 558.808 49.68V61.08ZM624.775 90V89.52C625.895 89.36 626.695 89.2 627.175 89.04C629.175 88.24 630.415 86.76 630.895 84.6C631.215 83.24 631.375 80.24 631.375 75.6V64.44H613.975V75.6C613.975 80.24 614.135 83.24 614.455 84.6C615.015 86.84 616.295 88.32 618.295 89.04C618.695 89.2 619.455 89.36 620.575 89.52V90H592.375V89.52C593.655 89.28 594.415 89.12 594.655 89.04C596.815 88.32 598.135 87.04 598.615 85.2C599.095 83.44 599.335 79.8 599.335 74.28V53.76C599.335 48.16 599.095 44.48 598.615 42.72C598.135 40.96 596.855 39.72 594.775 39C594.055 38.68 593.255 38.52 592.375 38.52V38.04H620.575V38.52C619.695 38.52 618.895 38.68 618.175 39C616.255 39.72 615.015 41.2 614.455 43.44C614.135 44.72 613.975 47.72 613.975 52.44V62.4H631.375V52.44C631.375 47.72 631.215 44.72 630.895 43.44C630.415 41.36 629.215 39.88 627.295 39C626.175 38.68 625.335 38.52 624.775 38.52V38.04H652.975V38.52C652.015 38.52 651.175 38.68 650.455 39C648.455 39.72 647.255 40.96 646.855 42.72C646.295 44.4 646.015 48.08 646.015 53.76V74.28C646.015 79.88 646.295 83.52 646.855 85.2C647.335 87.04 648.615 88.32 650.695 89.04C650.935 89.12 651.695 89.28 652.975 89.52V90H624.775ZM700.4 44.4C705.76 49.36 708.44 55.88 708.44 63.96C708.44 72.04 705.8 78.6 700.52 83.64C695.24 88.6 689.12 91.08 682.16 91.08C675.28 91.08 669.2 88.6 663.92 83.64C658.64 78.68 656 72.12 656 63.96C656 55.88 658.64 49.36 663.92 44.4C669.2 39.44 675.28 36.96 682.16 36.96C689.04 36.96 695.12 39.44 700.4 44.4ZM688.52 87.24C691.4 83.64 692.84 75.88 692.84 63.96C692.84 52.04 691.4 44.32 688.52 40.8C687.08 39.04 684.96 38.16 682.16 38.16C679.68 38.16 677.64 39 676.04 40.68C673.08 43.96 671.6 51.72 671.6 63.96C671.6 76.04 673.04 83.8 675.92 87.24C677.44 89.08 679.52 90 682.16 90C684.88 90 687 89.08 688.52 87.24ZM759.262 61.32H728.062C728.062 72.76 729.902 80.6 733.582 84.84C735.502 86.92 738.142 87.96 741.502 87.96C749.342 87.96 754.662 82.96 757.462 72.96L758.782 73.32C757.662 78.6 755.262 82.88 751.582 86.16C747.982 89.44 743.382 91.08 737.782 91.08C730.742 91.08 725.102 89.24 720.862 85.56C715.102 80.52 712.222 73.4 712.222 64.2C712.222 55.72 714.622 49.08 719.422 44.28C724.302 39.4 730.142 36.96 736.942 36.96C744.142 36.96 749.662 39.04 753.502 43.2C757.422 47.28 759.382 52.24 759.382 58.08C759.382 59.6 759.342 60.68 759.262 61.32ZM745.342 54.96C745.342 47.84 744.302 43 742.222 40.44C740.942 39.08 739.262 38.4 737.182 38.4C735.182 38.4 733.462 39.12 732.022 40.56C729.702 43.12 728.382 49.48 728.062 59.64H741.502C742.942 59.64 743.942 59.32 744.502 58.68C745.062 58.04 745.342 56.8 745.342 54.96Z" fill="#1D1D1D"/>
</mask>
<g mask="url(#mask0_240_5287)">
<rect x="531" y="-325" width="1032" height="650" fill="#4658FD"/>
</g>
</svg>
