<svg width="42" height="73" fill="none" xmlns="http://www.w3.org/2000/svg"><g clip-path="url(#a)"><path d="M21.006 61.323c.354 0 .683-.159.915-.415C22.701 60.005 41 38.802 41 20.318 41 9.29 32.034.324 21.006.324S1 9.29 1 20.319c0 18.483 18.298 39.686 19.079 40.59.22.255.573.414.927.414ZM10.21 20.319c0-5.942 4.843-10.785 10.796-10.785 5.953 0 10.796 4.843 10.796 10.785 0 5.953-4.843 10.797-10.796 10.797-5.953 0-10.796-4.844-10.796-10.797Z" fill="#4658FD"/><g filter="url(#b)"><ellipse cx="21.5" cy="66" rx="17.5" ry="6" fill="#4658FD" fill-opacity=".4"/></g></g><defs><clipPath id="a"><path fill="#fff" d="M0 0h42v73H0z"/></clipPath><filter id="b" x="-2" y="54" width="47" height="24" filterUnits="userSpaceOnUse" color-interpolation-filters="sRGB"><feFlood flood-opacity="0" result="BackgroundImageFix"/><feBlend in="SourceGraphic" in2="BackgroundImageFix" result="shape"/><feGaussianBlur stdDeviation="3" result="effect1_foregroundBlur_281_8518"/></filter></defs></svg>