<svg width="24" height="24" fill="none" xmlns="http://www.w3.org/2000/svg"><path d="M9.937 1.561a2.143 2.143 0 0 1 4.126 0l1.346 4.315c.29.931 1.123 1.561 2.062 1.561h4.356c2.101 0 2.975 2.801 1.275 4.087l-3.524 2.667c-.76.576-1.078 1.595-.788 2.526l1.346 4.315c.65 2.082-1.638 3.813-3.337 2.526l-3.524-2.666a2.099 2.099 0 0 0-2.55 0l-3.523 2.666c-1.7 1.287-3.987-.444-3.338-2.526l1.346-4.315c.29-.93-.028-1.95-.788-2.526L.898 11.524c-1.7-1.286-.826-4.087 1.275-4.087H6.53c.94 0 1.772-.63 2.062-1.56L9.937 1.56Z" fill="#4658FD"/></svg>