<svg width="24" height="24" fill="none" xmlns="http://www.w3.org/2000/svg"><path d="M10.892 1.859c.357-1.145 1.859-1.145 2.216 0l1.346 4.315c.414 1.327 1.618 2.263 3.017 2.263h4.356c.542 0 .947.344 1.108.86.162.517.03 1.077-.437 1.43l-3.523 2.667c-1.107.838-1.552 2.3-1.14 3.621l1.346 4.315c.19.606-.041 1.132-.436 1.43-.389.295-.891.343-1.343 0l-3.524-2.666a3.099 3.099 0 0 0-3.756 0l-3.524 2.667c-.452.342-.954.294-1.343 0-.394-.299-.625-.825-.436-1.431l1.345-4.315c.412-1.321-.032-2.784-1.139-3.621l-3.523-2.667c-.467-.353-.598-.913-.437-1.43.16-.516.566-.86 1.108-.86H6.53c1.4 0 2.603-.936 3.017-2.263l1.346-4.315Z" stroke="#4658FD" stroke-width="2"/></svg>